<?xml version="1.0" encoding="UTF-8"?>
<!DOCTYPE svg PUBLIC "-//W3C//DTD SVG 1.1//EN" "http://www.w3.org/Graphics/SVG/1.1/DTD/svg11.dtd">
<svg xmlns="http://www.w3.org/2000/svg" version="1.1" width="500px" height="500px" style="shape-rendering:geometricPrecision; text-rendering:geometricPrecision; image-rendering:optimizeQuality; fill-rule:evenodd; clip-rule:evenodd" xmlns:xlink="http://www.w3.org/1999/xlink">
<g><path style="opacity:0.953" fill="#001d00" d="M 249.5,115.5 C 242.211,121.782 234.878,128.115 227.5,134.5C 216.51,129.503 205.177,125.503 193.5,122.5C 184.186,109.225 174.853,95.8914 165.5,82.5C 169.83,79.5423 174.497,77.0423 179.5,75C 180.833,74.3333 182.167,74.3333 183.5,75C 191,85.1667 198.5,95.3333 206,105.5C 200.18,82.8898 194.347,60.2231 188.5,37.5C 195.347,36.6645 202.181,35.6645 209,34.5C 210.436,34.5589 211.769,34.8922 213,35.5C 218.528,55.6173 224.362,75.6173 230.5,95.5C 238.095,78.0453 245.095,60.3786 251.5,42.5C 259.563,43.849 267.563,45.5157 275.5,47.5C 267.405,70.3617 258.738,93.0283 249.5,115.5 Z"/></g>
<g><path style="opacity:0.992" fill="#730004" d="M 193.5,122.5 C 205.177,125.503 216.51,129.503 227.5,134.5C 234.878,128.115 242.211,121.782 249.5,115.5C 287.427,92.2291 327.427,88.0624 369.5,103C 409.094,120.595 437.261,149.428 454,189.5C 470.639,233.055 472.972,277.389 461,322.5C 447.213,367.271 420.379,401.771 380.5,426C 344.79,446.184 306.457,458.517 265.5,463C 236.826,466.294 208.159,466.294 179.5,463C 114.255,450.287 69.0884,413.12 44,351.5C 27.9468,308.036 26.2802,264.036 39,219.5C 53.3892,175.112 82.2225,144.279 125.5,127C 147.801,120.178 170.468,118.678 193.5,122.5 Z"/></g>
<g><path style="opacity:1" fill="#fee5e5" d="M 344.5,117.5 C 353.657,121.8 362.49,126.8 371,132.5C 371.667,142.5 371.667,152.5 371,162.5C 362.528,168.139 353.695,173.139 344.5,177.5C 336.622,172.975 328.788,168.308 321,163.5C 320.333,153.167 320.333,142.833 321,132.5C 329.152,127.85 336.985,122.85 344.5,117.5 Z"/></g>
<g><path style="opacity:1" fill="#fee5e5" d="M 290.5,118.5 C 299.304,122.488 307.804,127.154 316,132.5C 316.832,142.849 316.666,153.183 315.5,163.5C 307.833,168.167 300.167,172.833 292.5,177.5C 283.87,172.699 275.37,167.699 267,162.5C 266.168,152.483 266.334,142.483 267.5,132.5C 275.397,128.059 283.064,123.392 290.5,118.5 Z"/></g>
<g><path style="opacity:1" fill="#fee5e5" d="M 263.5,166.5 C 265.308,166.491 266.975,166.991 268.5,168C 275.369,172.366 282.369,176.532 289.5,180.5C 290.666,190.817 290.832,201.151 290,211.5C 281.582,216.626 273.082,221.626 264.5,226.5C 256.417,221.375 248.25,216.375 240,211.5C 239.168,201.151 239.334,190.817 240.5,180.5C 248.397,176.059 256.064,171.392 263.5,166.5 Z"/></g>
<g><path style="opacity:1" fill="#fee5e5" d="M 371.5,166.5 C 373.308,166.491 374.975,166.991 376.5,168C 383.369,172.366 390.369,176.532 397.5,180.5C 398.666,190.817 398.832,201.151 398,211.5C 389.582,216.626 381.082,221.626 372.5,226.5C 364.417,221.375 356.25,216.375 348,211.5C 347.168,201.151 347.334,190.817 348.5,180.5C 356.397,176.059 364.064,171.392 371.5,166.5 Z"/></g>
<g><path style="opacity:1" fill="#fee5e5" d="M 315.5,167.5 C 317.199,167.34 318.866,167.506 320.5,168C 327.701,172.698 335.035,177.198 342.5,181.5C 343.833,191.833 343.833,202.167 342.5,212.5C 334.833,217.167 327.167,221.833 319.5,226.5C 311.241,222.232 303.241,217.566 295.5,212.5C 294.167,201.833 294.167,191.167 295.5,180.5C 302.573,176.641 309.239,172.307 315.5,167.5 Z"/></g>
<g><path style="opacity:1" fill="#fee5e5" d="M 236.5,215.5 C 245.657,219.8 254.49,224.8 263,230.5C 263.667,240.5 263.667,250.5 263,260.5C 254.528,266.139 245.695,271.139 236.5,275.5C 228.622,270.975 220.788,266.308 213,261.5C 212.333,251.167 212.333,240.833 213,230.5C 221.152,225.85 228.985,220.85 236.5,215.5 Z"/></g>
<g><path style="opacity:1" fill="#fee5e5" d="M 290.5,215.5 C 299.304,219.488 307.804,224.154 316,229.5C 316.832,240.182 316.666,250.849 315.5,261.5C 307.833,266.167 300.167,270.833 292.5,275.5C 284.5,270.833 276.5,266.167 268.5,261.5C 267.334,250.849 267.168,240.182 268,229.5C 275.648,224.934 283.148,220.267 290.5,215.5 Z"/></g>
<g><path style="opacity:1" fill="#fee5e5" d="M 344.5,215.5 C 353.657,219.8 362.49,224.8 371,230.5C 371.667,240.5 371.667,250.5 371,260.5C 362.528,266.139 353.695,271.139 344.5,275.5C 336.622,270.975 328.788,266.308 321,261.5C 320.333,251.167 320.333,240.833 321,230.5C 329.152,225.85 336.985,220.85 344.5,215.5 Z"/></g>
<g><path style="opacity:1" fill="#fee5e5" d="M 398.5,215.5 C 400.308,215.491 401.975,215.991 403.5,217C 410.369,221.366 417.369,225.532 424.5,229.5C 425.666,239.817 425.832,250.151 425,260.5C 416.75,265.375 408.583,270.375 400.5,275.5C 392.5,270.833 384.5,266.167 376.5,261.5C 375.334,250.849 375.168,240.182 376,229.5C 383.648,224.934 391.148,220.267 398.5,215.5 Z"/></g>
<g><path style="opacity:1" fill="#fee5e5" d="M 263.5,264.5 C 265.308,264.491 266.975,264.991 268.5,266C 275.369,270.366 282.369,274.532 289.5,278.5C 290.666,288.817 290.832,299.151 290,309.5C 281.582,314.626 273.082,319.626 264.5,324.5C 256.417,319.375 248.25,314.375 240,309.5C 239.168,299.151 239.334,288.817 240.5,278.5C 248.397,274.059 256.064,269.392 263.5,264.5 Z"/></g>
<g><path style="opacity:1" fill="#fee5e5" d="M 371.5,264.5 C 373.308,264.491 374.975,264.991 376.5,266C 383.369,270.366 390.369,274.532 397.5,278.5C 398.666,288.817 398.832,299.151 398,309.5C 389.582,314.626 381.082,319.626 372.5,324.5C 364.417,319.375 356.25,314.375 348,309.5C 347.168,299.151 347.334,288.817 348.5,278.5C 356.397,274.059 364.064,269.392 371.5,264.5 Z"/></g>
<g><path style="opacity:1" fill="#fee5e5" d="M 425.5,264.5 C 434.657,268.8 443.49,273.8 452,279.5C 452.667,289.833 452.667,300.167 452,310.5C 444.148,315.426 436.148,320.093 428,324.5C 419.457,320.449 411.291,315.783 403.5,310.5C 402.167,299.833 402.167,289.167 403.5,278.5C 411.141,274.168 418.474,269.501 425.5,264.5 Z"/></g>
<g><path style="opacity:1" fill="#fee5e5" d="M 315.5,265.5 C 317.199,265.34 318.866,265.506 320.5,266C 327.701,270.698 335.035,275.198 342.5,279.5C 343.833,289.833 343.833,300.167 342.5,310.5C 334.833,315.167 327.167,319.833 319.5,324.5C 311.241,320.232 303.241,315.566 295.5,310.5C 294.167,299.833 294.167,289.167 295.5,278.5C 302.573,274.641 309.239,270.307 315.5,265.5 Z"/></g>
<g><path style="opacity:1" fill="#fee5e5" d="M 236.5,313.5 C 245.657,317.8 254.49,322.8 263,328.5C 263.667,338.5 263.667,348.5 263,358.5C 254.528,364.139 245.695,369.139 236.5,373.5C 228.622,368.975 220.788,364.308 213,359.5C 212.333,349.167 212.333,338.833 213,328.5C 221.152,323.85 228.985,318.85 236.5,313.5 Z"/></g>
<g><path style="opacity:1" fill="#fee5e5" d="M 290.5,313.5 C 299.304,317.488 307.804,322.154 316,327.5C 316.832,338.182 316.666,348.849 315.5,359.5C 307.833,364.167 300.167,368.833 292.5,373.5C 284.5,368.833 276.5,364.167 268.5,359.5C 267.334,348.849 267.168,338.182 268,327.5C 275.648,322.934 283.148,318.267 290.5,313.5 Z"/></g>
<g><path style="opacity:1" fill="#fee5e5" d="M 344.5,313.5 C 353.657,317.8 362.49,322.8 371,328.5C 371.667,338.833 371.667,349.167 371,359.5C 362.657,364.516 354.323,369.516 346,374.5C 337.677,369.516 329.343,364.516 321,359.5C 320.333,349.167 320.333,338.833 321,328.5C 329.152,323.85 336.985,318.85 344.5,313.5 Z"/></g>
<g><path style="opacity:1" fill="#fee5e5" d="M 398.5,313.5 C 400.308,313.491 401.975,313.991 403.5,315C 410.369,319.366 417.369,323.532 424.5,327.5C 425.833,338.167 425.833,348.833 424.5,359.5C 416.399,364.3 408.232,368.967 400,373.5C 391.852,369.093 383.852,364.426 376,359.5C 375.333,348.833 375.333,338.167 376,327.5C 383.648,322.934 391.148,318.267 398.5,313.5 Z"/></g>
<g><path style="opacity:1" fill="#fee5e5" d="M 263.5,362.5 C 265.308,362.491 266.975,362.991 268.5,364C 275.369,368.366 282.369,372.532 289.5,376.5C 290.833,387.167 290.833,397.833 289.5,408.5C 281.399,413.3 273.232,417.967 265,422.5C 256.768,417.967 248.601,413.3 240.5,408.5C 239.167,397.833 239.167,387.167 240.5,376.5C 248.397,372.059 256.064,367.392 263.5,362.5 Z"/></g>
<g><path style="opacity:1" fill="#fee5e5" d="M 315.5,363.5 C 317.199,363.34 318.866,363.506 320.5,364C 328.25,368.959 336.083,373.792 344,378.5C 344.667,388.5 344.667,398.5 344,408.5C 335.657,413.516 327.323,418.516 319,423.5C 311.046,419.048 303.213,414.382 295.5,409.5C 294.167,398.5 294.167,387.5 295.5,376.5C 302.573,372.641 309.239,368.307 315.5,363.5 Z"/></g>
</svg>
