<?xml version="1.0" encoding="UTF-8"?>
<!DOCTYPE svg PUBLIC "-//W3C//DTD SVG 1.1//EN" "http://www.w3.org/Graphics/SVG/1.1/DTD/svg11.dtd">
<svg xmlns="http://www.w3.org/2000/svg" version="1.1" width="500px" height="500px" style="shape-rendering:geometricPrecision; text-rendering:geometricPrecision; image-rendering:optimizeQuality; fill-rule:evenodd; clip-rule:evenodd" xmlns:xlink="http://www.w3.org/1999/xlink">
<g><path style="opacity:0.98" fill="#000000" d="M 205.5,34.5 C 208.119,34.2317 210.619,34.565 213,35.5C 218.528,55.6173 224.362,75.6173 230.5,95.5C 238.095,78.0453 245.095,60.3786 251.5,42.5C 259.563,43.849 267.563,45.5157 275.5,47.5C 267.633,70.0949 258.966,92.4282 249.5,114.5C 249.833,114.833 250.167,115.167 250.5,115.5C 290.017,91.4353 331.35,87.9353 374.5,105C 411.625,123.126 438.125,151.293 454,189.5C 469.025,227.397 472.692,266.397 465,306.5C 452.4,363.746 420.234,405.912 368.5,433C 329.93,451.476 289.263,462.143 246.5,465C 208.987,469.018 172.653,464.351 137.5,451C 93.2836,430.116 62.1169,396.95 44,351.5C 27.9468,308.036 26.2802,264.036 39,219.5C 65.5641,147.423 117.064,114.757 193.5,121.5C 183.921,108.676 174.588,95.6764 165.5,82.5C 169.83,79.5423 174.497,77.0423 179.5,75C 181.112,74.2797 182.612,74.4464 184,75.5C 191.333,85.5 198.667,95.5 206,105.5C 200.18,82.8898 194.347,60.2231 188.5,37.5C 194.386,37.0203 200.052,36.0203 205.5,34.5 Z M 345.5,117.5 C 353.971,122.237 362.305,127.237 370.5,132.5C 371.833,142.5 371.833,152.5 370.5,162.5C 362.231,167.885 353.731,172.885 345,177.5C 337.046,173.048 329.213,168.382 321.5,163.5C 320.167,153.167 320.167,142.833 321.5,132.5C 329.564,127.475 337.564,122.475 345.5,117.5 Z M 291.5,118.5 C 299.472,123.155 307.472,127.822 315.5,132.5C 316.666,142.483 316.832,152.483 316,162.5C 308.168,167.75 300.168,172.75 292,177.5C 283.75,172.625 275.583,167.625 267.5,162.5C 266.335,152.851 266.168,143.184 267,133.5C 275.314,128.6 283.481,123.6 291.5,118.5 Z M 264.5,166.5 C 273.055,171.362 281.555,176.362 290,181.5C 290.832,191.517 290.666,201.517 289.5,211.5C 281.417,216.625 273.25,221.625 265,226.5C 256.75,221.625 248.583,216.625 240.5,211.5C 239.334,201.517 239.168,191.517 240,181.5C 248.314,176.6 256.481,171.6 264.5,166.5 Z M 372.5,166.5 C 381.055,171.362 389.555,176.362 398,181.5C 398.832,191.517 398.666,201.517 397.5,211.5C 389.417,216.625 381.25,221.625 373,226.5C 364.75,221.625 356.583,216.625 348.5,211.5C 347.334,201.517 347.168,191.517 348,181.5C 356.314,176.6 364.481,171.6 372.5,166.5 Z M 316.5,167.5 C 325.803,171.571 334.637,176.571 343,182.5C 343.667,192.167 343.667,201.833 343,211.5C 335.168,216.75 327.168,221.75 319,226.5C 310.832,221.75 302.832,216.75 295,211.5C 294.333,201.5 294.333,191.5 295,181.5C 302.342,176.97 309.509,172.304 316.5,167.5 Z M 237.5,215.5 C 245.971,220.237 254.305,225.237 262.5,230.5C 263.833,240.5 263.833,250.5 262.5,260.5C 254.231,265.885 245.731,270.885 237,275.5C 229.046,271.048 221.213,266.382 213.5,261.5C 212.167,251.167 212.167,240.833 213.5,230.5C 221.564,225.475 229.564,220.475 237.5,215.5 Z M 291.5,215.5 C 299.472,220.155 307.472,224.822 315.5,229.5C 316.666,239.817 316.832,250.151 316,260.5C 308.168,265.75 300.168,270.75 292,275.5C 283.832,270.75 275.832,265.75 268,260.5C 267.168,250.151 267.334,239.817 268.5,229.5C 276.397,225.059 284.064,220.392 291.5,215.5 Z M 345.5,215.5 C 353.971,220.237 362.305,225.237 370.5,230.5C 371.833,240.5 371.833,250.5 370.5,260.5C 362.231,265.885 353.731,270.885 345,275.5C 337.046,271.048 329.213,266.382 321.5,261.5C 320.167,251.167 320.167,240.833 321.5,230.5C 329.564,225.475 337.564,220.475 345.5,215.5 Z M 399.5,215.5 C 408.055,220.362 416.555,225.362 425,230.5C 425.832,240.517 425.666,250.517 424.5,260.5C 416.417,265.625 408.25,270.625 400,275.5C 391.832,270.75 383.832,265.75 376,260.5C 375.168,250.151 375.334,239.817 376.5,229.5C 384.397,225.059 392.064,220.392 399.5,215.5 Z M 264.5,264.5 C 273.055,269.362 281.555,274.362 290,279.5C 290.832,289.517 290.666,299.517 289.5,309.5C 281.417,314.625 273.25,319.625 265,324.5C 256.75,319.625 248.583,314.625 240.5,309.5C 239.334,299.517 239.168,289.517 240,279.5C 248.314,274.6 256.481,269.6 264.5,264.5 Z M 372.5,264.5 C 381.055,269.362 389.555,274.362 398,279.5C 398.832,289.517 398.666,299.517 397.5,309.5C 389.417,314.625 381.25,319.625 373,324.5C 364.75,319.625 356.583,314.625 348.5,309.5C 347.334,299.517 347.168,289.517 348,279.5C 356.314,274.6 364.481,269.6 372.5,264.5 Z M 426.5,264.5 C 434.971,269.237 443.305,274.237 451.5,279.5C 452.833,289.833 452.833,300.167 451.5,310.5C 443.787,315.382 435.954,320.048 428,324.5C 419.351,320.01 411.018,315.01 403,309.5C 402.333,299.5 402.333,289.5 403,279.5C 410.813,274.351 418.647,269.351 426.5,264.5 Z M 316.5,265.5 C 325.803,269.571 334.637,274.571 343,280.5C 343.667,290.167 343.667,299.833 343,309.5C 335.168,314.75 327.168,319.75 319,324.5C 310.832,319.75 302.832,314.75 295,309.5C 294.333,299.5 294.333,289.5 295,279.5C 302.342,274.97 309.509,270.304 316.5,265.5 Z M 237.5,313.5 C 245.971,318.237 254.305,323.237 262.5,328.5C 263.833,338.5 263.833,348.5 262.5,358.5C 254.231,363.885 245.731,368.885 237,373.5C 229.046,369.048 221.213,364.382 213.5,359.5C 212.167,349.167 212.167,338.833 213.5,328.5C 221.564,323.475 229.564,318.475 237.5,313.5 Z M 291.5,313.5 C 299.472,318.155 307.472,322.822 315.5,327.5C 316.666,337.817 316.832,348.151 316,358.5C 308.168,363.75 300.168,368.75 292,373.5C 283.832,368.75 275.832,363.75 268,358.5C 267.168,348.151 267.334,337.817 268.5,327.5C 276.397,323.059 284.064,318.392 291.5,313.5 Z M 345.5,313.5 C 353.971,318.237 362.305,323.237 370.5,328.5C 371.833,338.833 371.833,349.167 370.5,359.5C 362.417,364.625 354.25,369.625 346,374.5C 337.75,369.625 329.583,364.625 321.5,359.5C 320.167,349.167 320.167,338.833 321.5,328.5C 329.564,323.475 337.564,318.475 345.5,313.5 Z M 399.5,313.5 C 408.055,318.362 416.555,323.362 425,328.5C 425.667,338.5 425.667,348.5 425,358.5C 416.667,363.5 408.333,368.5 400,373.5C 392.249,368.707 384.416,364.041 376.5,359.5C 375.167,348.833 375.167,338.167 376.5,327.5C 384.397,323.059 392.064,318.392 399.5,313.5 Z M 264.5,362.5 C 273.055,367.362 281.555,372.362 290,377.5C 290.667,387.5 290.667,397.5 290,407.5C 281.667,412.5 273.333,417.5 265,422.5C 256.667,417.5 248.333,412.5 240,407.5C 239.333,397.5 239.333,387.5 240,377.5C 248.314,372.6 256.481,367.6 264.5,362.5 Z M 316.5,363.5 C 325.886,367.696 334.886,372.696 343.5,378.5C 344.833,388.5 344.833,398.5 343.5,408.5C 335.417,413.625 327.25,418.625 319,423.5C 310.832,418.75 302.832,413.75 295,408.5C 294.333,398.167 294.333,387.833 295,377.5C 302.342,372.97 309.509,368.304 316.5,363.5 Z"/></g>
</svg>
